<?xml version="1.0" encoding="UTF-8" standalone="no"?>
<!DOCTYPE svg PUBLIC "-//W3C//DTD SVG 1.1//EN" "http://www.w3.org/Graphics/SVG/1.1/DTD/svg11.dtd">
<svg width="100%" height="100%" viewBox="0 0 5657 5657" version="1.1" xmlns="http://www.w3.org/2000/svg" xmlns:xlink="http://www.w3.org/1999/xlink" xml:space="preserve" xmlns:serif="http://www.serif.com/" style="fill-rule:evenodd;clip-rule:evenodd;stroke-linejoin:round;stroke-miterlimit:2;">
    <g transform="matrix(1.90237,0,0,1.90237,-2554.72,-2572.88)">
        <path d="M3618.55,3874.73C3695.75,3869.97 3765.95,3866.66 3794.63,3868.12C3811.67,3868.98 3800.4,3918.97 3800.4,3918.97C3800.4,3918.97 3705.32,4158.38 3593.95,4169.81C3482.58,4181.25 1918.89,4168.26 1918.89,4168.26C1918.89,4168.26 1844.56,4001.02 1856.26,3962.68C1893.72,3959.99 2163.77,3951.5 2163.77,3951.5L2370.83,3944.13L2425.36,3845.57L2828.09,3840.55L2828.09,3781.8L2006.71,3779.7C2006.71,3779.7 1941.09,3781.02 1954.22,3738.56C1954.22,3738.56 2704.14,1873.12 2873.59,1513.02C2887.59,1483.26 2907.56,1533.73 2907.56,1533.73L2917.68,3678.37C2917.68,3678.37 3038.75,3276.16 3061.95,2935.2C3096,2434.89 2945.55,2120.53 2945.55,2120.53C2945.55,2120.53 2917.79,2042.08 2930.86,2036.96C2930.86,2036.96 2968.7,2083.77 3002.35,2148.1C3025.34,2192.08 3176.6,2645.33 3176.6,2645.33L3618.55,3874.73ZM2918.21,3791.06L2918.42,3835.26L3069.96,3832.69L3333.64,3895.28C3333.64,3895.28 3411.65,3888.95 3504.42,3882.36C3447.75,3867.88 3084.43,3777.32 2918.21,3791.06Z"/>
    </g>
</svg>
